<svg width="360" height="240" viewBox="0 0 360 240" fill="none" xmlns="http://www.w3.org/2000/svg">
<rect width="360" height="240" fill="#F9F9F9"/>
<path d="M182 91.5013C181.857 91.5 181.696 91.5 181.512 91.5H174.8C173.12 91.5 172.279 91.5 171.638 91.827C171.073 92.1146 170.615 92.5732 170.327 93.1377C170 93.7794 170 94.6201 170 96.3003V113.7C170 115.38 170 116.22 170.327 116.862C170.615 117.426 171.073 117.886 171.638 118.173C172.279 118.5 173.119 118.5 174.795 118.5L186.205 118.5C187.882 118.5 188.72 118.5 189.361 118.173C189.926 117.886 190.386 117.426 190.673 116.862C191 116.221 191 115.382 191 113.705V100.989C191 100.804 191 100.643 190.999 100.5M182 91.5013C182.428 91.5052 182.7 91.5208 182.958 91.5829C183.264 91.6564 183.557 91.7779 183.825 91.9424C184.128 92.1278 184.388 92.3877 184.906 92.9062L189.594 97.5945C190.113 98.1133 190.371 98.372 190.557 98.6748C190.721 98.9432 190.843 99.2359 190.917 99.542C190.979 99.8006 190.995 100.072 190.999 100.5M182 91.5013V95.7C182 97.3802 182 98.2197 182.327 98.8614C182.615 99.4259 183.073 99.8857 183.638 100.173C184.279 100.5 185.118 100.5 186.795 100.5H190.999M190.999 100.5H191" stroke="#E3E3E8" stroke-width="3" stroke-linecap="round" stroke-linejoin="round"/>
<path d="M100.266 136.375C102.359 136.383 103.852 138.289 103.859 141.281C103.852 144.305 102.359 146.211 100.266 146.203C98.1719 146.211 96.6797 144.305 96.6875 141.281C96.6797 138.289 98.1719 136.383 100.266 136.375ZM98.1094 141.281C98.1016 143.508 98.9922 144.875 100.266 144.875C101.562 144.875 102.438 143.508 102.438 141.281C102.438 139.086 101.562 137.711 100.266 137.703C98.9922 137.711 98.1016 139.086 98.1094 141.281ZM105.938 149.328V135.328H107.422V140.812H109.672V142.062H107.422V149.328H105.938ZM115.531 137.844C115.531 139.641 116.867 141.367 119.031 142.047L118.266 143.203C116.656 142.672 115.438 141.57 114.805 140.164C114.172 141.68 112.93 142.883 111.266 143.469L110.5 142.328C112.68 141.57 114.023 139.742 114.031 137.844V137.453H110.891V136.25H118.609V137.453H115.531V137.844ZM112.469 145.688V144.484H121.953V149.328H120.469V145.688H112.469ZM120.469 143.781V135.328H121.953V143.781H120.469ZM140.859 141.906V143.125H128.078V141.906H140.859ZM129.594 146.766C129.594 145.141 131.414 144.219 134.453 144.219C137.469 144.219 139.273 145.141 139.281 146.766C139.273 148.391 137.469 149.305 134.453 149.297C131.414 149.305 129.594 148.391 129.594 146.766ZM129.672 140.688V135.828H139.281V137.047H131.141V139.484H139.375V140.688H129.672ZM131.094 146.766C131.086 147.664 132.312 148.148 134.453 148.156C136.562 148.148 137.797 147.664 137.797 146.766C137.797 145.875 136.562 145.375 134.453 145.359C132.312 145.375 131.086 145.875 131.094 146.766ZM154.703 142.969V144.172H141.891V142.969H147.562V141.641H143.531V138.078H151.609V136.828H143.5V135.656H153.094V139.172H145V140.484H153.375V141.641H149.031V142.969H154.703ZM143.328 146.344V145.156H153.172V149.219H151.672V146.344H143.328ZM163.891 139.812V141.016H161.156V142.789C162.398 142.727 163.633 142.641 164.781 142.516L164.891 143.609C161.906 144.016 158.633 144.102 156 144.094L155.797 142.906C156.992 142.898 158.32 142.883 159.688 142.844V141.016H157.047V136.219H163.766V137.422H158.531V139.812H163.891ZM158.109 149.031V145.078H159.594V147.828H167.781V149.031H158.109ZM165.859 145.828V135.328H167.344V145.828H165.859ZM178.328 138.891C178.312 141.367 179.758 143.906 181.844 144.922L180.922 146.109C179.398 145.312 178.219 143.75 177.602 141.883C176.977 143.867 175.75 145.547 174.156 146.375L173.234 145.172C175.383 144.141 176.836 141.453 176.844 138.891V136.5H178.328V138.891ZM182.891 149.328V135.328H184.375V140.906H186.625V142.172H184.375V149.328H182.891ZM192.484 138.25C192.484 140.062 193.82 141.766 195.984 142.453L195.219 143.609C193.609 143.078 192.398 141.977 191.758 140.578C191.133 142.102 189.883 143.305 188.219 143.891L187.453 142.719C189.633 141.977 190.977 140.164 190.984 138.25V137.641H187.844V136.438H195.562V137.641H192.484V138.25ZM189.75 149.031V144.594H191.25V147.828H199.328V149.031H189.75ZM197.422 145.562V135.344H198.906V145.562H197.422ZM212.719 135.328V149.359H211.234V135.328H212.719ZM201.609 141.281C201.609 138.289 203.117 136.383 205.234 136.375C207.312 136.383 208.844 138.289 208.844 141.281C208.844 144.305 207.312 146.211 205.234 146.203C203.117 146.211 201.609 144.305 201.609 141.281ZM203.047 141.281C203.039 143.508 203.93 144.875 205.234 144.875C206.516 144.875 207.406 143.508 207.406 141.281C207.406 139.086 206.516 137.711 205.234 137.703C203.93 137.711 203.039 139.086 203.047 141.281ZM221.844 143.531V145.156H224.031V143.531H225.406V149.156H220.453V143.531H221.844ZM219.062 139.156C219.055 137.242 220.594 135.922 222.734 135.922C224.578 135.922 226.008 136.961 226.312 138.531H229.047V135.328H230.531V142.75H229.047V139.75H226.32C226.031 141.352 224.594 142.414 222.734 142.406C220.594 142.414 219.055 141.086 219.062 139.156ZM220.484 139.156C220.477 140.367 221.414 141.195 222.734 141.203C224.031 141.195 224.953 140.367 224.953 139.156C224.953 137.961 224.031 137.148 222.734 137.156C221.414 137.148 220.477 137.961 220.484 139.156ZM221.844 148H224.031V146.281H221.844V148ZM225.484 148.141C227.172 147.445 228 145.977 228 144.578V143.438H229.469V144.578C229.461 146.047 230.289 147.531 232.016 148.141L231.25 149.266C229.984 148.781 229.164 147.867 228.719 146.758C228.258 147.836 227.438 148.766 226.234 149.266L225.484 148.141ZM236.484 136.375C238.391 136.383 239.773 137.992 240 140.578H242.891V135.328H244.359V149.359H242.891V141.781H240.016C239.852 144.516 238.438 146.211 236.484 146.203C234.398 146.211 232.922 144.305 232.938 141.281C232.922 138.289 234.398 136.383 236.484 136.375ZM234.344 141.281C234.352 143.508 235.219 144.875 236.484 144.875C237.75 144.875 238.617 143.508 238.625 141.281C238.617 139.086 237.75 137.711 236.484 137.703C235.219 137.711 234.352 139.086 234.344 141.281ZM259.328 146.344V147.578H246.516V146.344H249.578V142.688C248.43 142.055 247.727 141.055 247.734 139.797C247.727 137.594 249.891 136.148 252.891 136.141C255.898 136.148 258.062 137.594 258.062 139.797C258.062 141.031 257.391 142.023 256.266 142.656V146.344H259.328ZM249.172 139.797C249.172 141.297 250.695 142.273 252.891 142.281C255.07 142.273 256.617 141.297 256.625 139.797C256.617 138.289 255.07 137.328 252.891 137.328C250.695 137.328 249.172 138.289 249.172 139.797ZM251.047 146.344H254.766V143.234C254.195 143.367 253.562 143.438 252.891 143.438C252.234 143.438 251.609 143.367 251.047 143.234V146.344ZM261.938 148.109C261.328 148.102 260.82 147.609 260.828 147C260.82 146.391 261.328 145.891 261.938 145.891C262.539 145.891 263.039 146.391 263.047 147C263.039 147.609 262.539 148.102 261.938 148.109Z" fill="#BCBCC4"/>
</svg>
