<svg width="24" height="25" viewBox="0 0 24 25" fill="none" xmlns="http://www.w3.org/2000/svg">
<path d="M5.76794 10.3926C5.52824 10.3926 5.31517 10.487 5.15536 10.6624C4.98225 10.8379 4.90234 11.0537 4.90234 11.3101C4.90234 11.5665 4.98225 11.7689 5.15536 11.9578C5.32848 12.1332 5.52824 12.2277 5.76794 12.2277C6.00765 12.2277 6.22072 12.1332 6.39384 11.9578C6.56696 11.7824 6.66017 11.5665 6.66017 11.3101C6.66017 11.0537 6.56696 10.8379 6.39384 10.6624C6.22072 10.4735 6.02096 10.3926 5.76794 10.3926Z" fill="#9A9AA1"/>
<path d="M13.2386 10.3789C12.9989 10.3789 12.7859 10.4734 12.6261 10.6488C12.4529 10.8242 12.373 11.0401 12.373 11.2964C12.373 11.5528 12.4529 11.7552 12.6261 11.9441C12.7992 12.1195 12.9989 12.214 13.2386 12.214C13.4783 12.214 13.6914 12.1195 13.8645 11.9441C14.0377 11.7687 14.1309 11.5528 14.1309 11.2964C14.1309 11.0401 14.0377 10.8377 13.8645 10.6488C13.7047 10.4599 13.4917 10.3789 13.2386 10.3789Z" fill="#9A9AA1"/>
<path d="M18.2318 10.3926C17.9921 10.3926 17.779 10.487 17.6192 10.6624C17.4461 10.8379 17.3662 11.0537 17.3662 11.3101C17.3662 11.5665 17.4461 11.7689 17.6192 11.9578C17.7924 12.1332 17.9921 12.2277 18.2318 12.2277C18.4715 12.2277 18.6846 12.1332 18.8577 11.9578C19.0308 11.7824 19.1241 11.5665 19.1241 11.3101C19.1241 11.0537 19.0308 10.8379 18.8577 10.6624C18.6846 10.4735 18.4715 10.3926 18.2318 10.3926Z" fill="#9A9AA1"/>
<path d="M20.4431 3.72656H3.55729C2.26555 3.72656 1.2002 4.80602 1.2002 6.11487V15.7895C1.2002 17.0984 2.26555 18.1778 3.55729 18.1778H10.1891C10.1891 18.1778 11.4675 21.7266 11.9336 21.7266C12.3997 21.7266 13.7847 18.1778 13.7847 18.1778H20.4431C21.7348 18.1778 22.8002 17.0984 22.8002 15.7895V6.11487C22.8002 4.80602 21.7348 3.72656 20.4431 3.72656ZM7.47245 12.6591C7.13953 13.0369 6.62017 13.1988 6.06086 13.1988C5.55482 13.1988 5.18195 13.0504 4.91561 12.8345H4.90229V13.1044H3.63719V7.50467H4.90229V9.6501H4.92893C5.27516 9.35325 5.72794 9.2588 6.26061 9.23181C6.71339 9.21832 7.1928 9.50167 7.48577 9.83901C7.76542 10.1763 7.97849 10.7026 7.97849 11.2828C7.97849 11.917 7.81869 12.2813 7.47245 12.6591ZM10.2024 13.1583H8.91068C8.91068 13.1583 8.91068 10.2168 8.91068 9.69058C8.91068 8.89448 8.28478 8.78653 8.28478 8.78653V7.39673C8.28478 7.39673 10.0959 7.50467 10.2024 9.73106C10.2024 10.3652 10.2024 13.1583 10.2024 13.1583ZM15.2762 12.0924C15.1696 12.3488 15.0098 12.5646 14.7967 12.767C14.597 12.9559 14.3573 13.1044 14.0909 13.2123C13.8246 13.3203 13.545 13.3742 13.252 13.3742C12.959 13.3742 12.6794 13.3203 12.4263 13.2123C12.16 13.1044 11.9203 12.9559 11.7205 12.767C11.5075 12.5646 11.3477 12.3353 11.2411 12.0924C11.1346 11.8495 11.0813 11.5796 11.0813 11.2963C11.0813 11.0129 11.1346 10.7565 11.2411 10.5002C11.3477 10.2573 11.5075 10.0279 11.7205 9.82551C11.9336 9.63661 12.16 9.48818 12.4263 9.38024C12.6927 9.27229 12.9723 9.21832 13.252 9.21832C13.545 9.21832 13.8246 9.27229 14.0909 9.38024C14.3573 9.48818 14.597 9.63661 14.7967 9.82551C15.0098 10.0279 15.1563 10.2438 15.2762 10.5002C15.3827 10.7565 15.436 11.0129 15.436 11.2963C15.436 11.5796 15.3827 11.836 15.2762 12.0924ZM20.3632 12.6456C20.3632 13.6306 20.1768 14.2243 19.7506 14.6426C19.2313 15.1419 18.4988 15.1688 17.8863 15.0879V14.0759C18.4056 14.1299 19.1114 13.779 19.1114 13.1044V12.848H19.0981C18.8051 13.2528 18.3923 13.4012 17.8197 13.4012C17.3003 13.4012 16.8475 13.2123 16.5413 12.848C16.235 12.4837 16.0885 11.9979 16.0885 11.3907C16.0885 10.7026 16.2616 10.1628 16.5945 9.75805C16.9408 9.35325 17.4202 9.16434 17.9795 9.16434C18.4722 9.16434 18.7918 9.28578 19.0981 9.56914H19.1114V9.2588H20.3765V12.6456H20.3632Z" fill="#9A9AA1"/>
</svg>
