<svg width="37" height="36" viewBox="0 0 37 36" fill="none" xmlns="http://www.w3.org/2000/svg">
<g id="file_blank">
<path id="Vector" d="M20 4.5013C19.8568 4.5 19.6959 4.5 19.5121 4.5H12.8003C11.1201 4.5 10.2794 4.5 9.6377 4.82698C9.07321 5.1146 8.6146 5.57321 8.32698 6.1377C8 6.77943 8 7.62014 8 9.30029V26.7003C8 28.3804 8 29.2201 8.32698 29.8618C8.6146 30.4263 9.07321 30.8857 9.6377 31.1733C10.2788 31.5 11.1185 31.5 12.7954 31.5L24.2046 31.5C25.8815 31.5 26.72 31.5 27.3611 31.1733C27.9256 30.8857 28.3857 30.4263 28.6733 29.8618C29 29.2207 29 28.3822 29 26.7054V13.9885C29 13.8044 29 13.6434 28.9986 13.5M20 4.5013C20.4285 4.5052 20.6995 4.52077 20.9583 4.58289C21.2644 4.65638 21.5568 4.7779 21.8252 4.94238C22.1278 5.12785 22.3877 5.38773 22.9062 5.90625L27.5945 10.5945C28.1133 11.1133 28.3713 11.372 28.5568 11.6748C28.7213 11.9432 28.843 12.2359 28.9165 12.542C28.9786 12.8006 28.9945 13.0718 28.9986 13.5M20 4.5013V8.7C20 10.3802 20 11.2197 20.327 11.8614C20.6146 12.4259 21.0732 12.8857 21.6377 13.1733C22.2788 13.5 23.1185 13.5 24.7954 13.5H28.9986M28.9986 13.5H29.0003" stroke="#E3E3E8" stroke-width="3" stroke-linecap="round" stroke-linejoin="round"/>
</g>
</svg>
