<svg width="24" height="24" viewBox="0 0 24 24" fill="none" xmlns="http://www.w3.org/2000/svg">
<path d="M12 19.75C7.72614 19.75 4.25 16.2739 4.25 12C4.25 7.72614 7.72614 4.25 12 4.25C16.2739 4.25 19.75 7.72614 19.75 12C19.75 16.2739 16.2739 19.75 12 19.75ZM12 4.75C8.00386 4.75 4.75 8.00386 4.75 12C4.75 15.9961 8.00386 19.25 12 19.25C15.9961 19.25 19.25 15.9961 19.25 12C19.25 8.00386 15.9961 4.75 12 4.75Z" fill="#323236" stroke="#323236"/>
<path d="M12 7.5C11.59 7.5 11.25 7.16 11.25 6.75V4.75C11.25 4.34 11.59 4 12 4C12.41 4 12.75 4.34 12.75 4.75V6.75C12.75 7.16 12.41 7.5 12 7.5Z" fill="#323236"/>
<path d="M6.75 12.75H4.75C4.34 12.75 4 12.41 4 12C4 11.59 4.34 11.25 4.75 11.25H6.75C7.16 11.25 7.5 11.59 7.5 12C7.5 12.41 7.16 12.75 6.75 12.75Z" fill="#323236"/>
<path d="M12 19.5C11.59 19.5 11.25 19.16 11.25 18.75V16.75C11.25 16.34 11.59 16 12 16C12.41 16 12.75 16.34 12.75 16.75V18.75C12.75 19.16 12.41 19.5 12 19.5Z" fill="#323236"/>
<path d="M18.75 12.75H16.75C16.34 12.75 16 12.41 16 12C16 11.59 16.34 11.25 16.75 11.25H18.75C19.16 11.25 19.5 11.59 19.5 12C19.5 12.41 19.16 12.75 18.75 12.75Z" fill="#323236"/>
<circle cx="12" cy="12" r="1" fill="#323236"/>
</svg>
