<svg width="32" height="33" viewBox="0 0 32 33" fill="none" xmlns="http://www.w3.org/2000/svg">
<path d="M13.3337 27.1668H5.33366V15.7696C5.33366 15.0572 5.33366 14.7008 5.42029 14.3692C5.49706 14.0754 5.62405 13.7974 5.7946 13.5462C5.98705 13.2627 6.25451 13.0276 6.79069 12.5584L13.1928 6.95659C14.1868 6.08685 14.6838 5.65196 15.2436 5.48643C15.7371 5.34046 16.2632 5.34046 16.7568 5.48643C17.317 5.65208 17.8147 6.08739 18.8102 6.95843L25.2102 12.5584C25.7464 13.0276 26.014 13.2627 26.2064 13.5462C26.377 13.7974 26.503 14.0754 26.5798 14.3692C26.6664 14.7008 26.667 15.0572 26.667 15.7696V27.1668H18.667H13.3337Z" fill="#E6E9F9"/>
<path d="M2.66699 27.1668H5.33366M5.33366 27.1668H13.3337M5.33366 27.1668V15.7696C5.33366 15.0572 5.33366 14.7008 5.42029 14.3692C5.49706 14.0754 5.62405 13.7974 5.7946 13.5462C5.98705 13.2627 6.25451 13.0276 6.79069 12.5584L13.1928 6.95659C14.1868 6.08685 14.6838 5.65196 15.2436 5.48643C15.7371 5.34046 16.2632 5.34046 16.7568 5.48643C17.317 5.65208 17.8147 6.08739 18.8102 6.95843L25.2102 12.5584C25.7464 13.0276 26.014 13.2627 26.2064 13.5462C26.377 13.7974 26.503 14.0754 26.5798 14.3692C26.6664 14.7008 26.667 15.0572 26.667 15.7696V27.1668M13.3337 27.1668H18.667M13.3337 27.1668V21.8334C13.3337 20.3607 14.5276 19.1668 16.0003 19.1668C17.4731 19.1668 18.667 20.3607 18.667 21.8334V27.1668M18.667 27.1668H26.667M26.667 27.1668H29.3337" stroke="#BFC8EF" stroke-width="2" stroke-linecap="round" stroke-linejoin="round"/>
</svg>
