<svg width="24" height="25" viewBox="0 0 24 25" fill="none" xmlns="http://www.w3.org/2000/svg">
<path d="M11.9997 9.33398C10.288 9.33398 8.83301 10.7889 8.83301 12.5007C8.83301 14.2124 10.288 15.6673 11.9997 15.6673C13.7114 15.6673 15.1663 14.2124 15.1663 12.5007C15.1663 10.7889 13.7114 9.33398 11.9997 9.33398Z" fill="#9A9AA1"/>
<path d="M16.0591 3H8.02727C4.91818 3 2.5 5.41818 2.5 8.44091V16.4727C2.5 19.5818 4.91818 22 8.02727 22H16.0591C19.0818 22 21.5 19.5818 21.5 16.4727V8.44091C21.5 5.41818 19.0818 3 16.0591 3ZM12 17.5091C9.23636 17.5091 7.07727 15.2636 7.07727 12.5864C7.07727 9.90909 9.23636 7.57727 12 7.57727C14.7636 7.57727 16.9227 9.82273 16.9227 12.5C16.9227 15.1773 14.7636 17.5091 12 17.5091ZM17.0955 8.61364C16.4909 8.61364 15.9727 8.09545 15.9727 7.49091C15.9727 6.88636 16.4909 6.36818 17.0955 6.36818C17.7 6.36818 18.2182 6.88636 18.2182 7.49091C18.2182 8.09545 17.7 8.61364 17.0955 8.61364Z" fill="#9A9AA1"/>
</svg>
