<svg width="130" height="33" viewBox="0 0 130 33" fill="none" xmlns="http://www.w3.org/2000/svg">
<path d="M45.1838 30.7412L45.2172 2.38111C45.2172 1.66688 45.7514 1.08972 46.4125 1.08972H49.9781C50.6392 1.08972 51.1734 1.66688 51.1734 2.38111L51.14 25.1788C51.14 25.8931 51.6742 26.4702 52.3352 26.4702H59.6268C60.2879 26.4702 60.822 27.0474 60.822 27.7616V30.7412C60.822 31.4554 60.2879 32.0326 59.6268 32.0326H46.3791C45.718 32.0326 45.1838 31.4554 45.1838 30.7412Z" fill="#231815"/>
<path d="M66.7337 21.009V16.132C66.7337 15.0282 66.046 14.6819 65.2647 14.6963C63.9159 14.7252 63.6622 15.5476 63.6622 16.3484V21.0018C63.6622 21.9469 63.128 22.7188 62.467 22.7188H58.9013C58.2402 22.7188 57.7061 21.9469 57.7061 21.0018V2.80689C57.7061 1.86179 58.2402 1.08984 58.9013 1.08984H62.467C63.128 1.08984 63.6622 1.86179 63.6622 2.80689V7.33036C63.6622 8.43417 64.4101 8.97526 65.2113 8.91033C66.5668 8.88147 66.7404 7.90752 66.7404 7.10671V2.80689C66.7404 1.86179 67.2746 1.08984 67.9357 1.08984H71.5347C72.1958 1.08984 72.7299 1.86179 72.7299 2.80689V21.009C72.7299 21.9541 72.1958 22.726 71.5347 22.726H67.9357C67.2746 22.726 66.7404 21.9541 66.7404 21.009H66.7337Z" fill="#231815"/>
<path d="M94.537 21.009V16.132C94.537 15.0282 93.8492 14.6819 93.068 14.6963C91.7192 14.7252 91.4654 15.5476 91.4654 16.3484V21.0018C91.4654 21.9469 90.9312 22.7188 90.2702 22.7188H86.7045C86.0435 22.7188 85.5093 21.9469 85.5093 21.0018V2.80689C85.5093 1.86179 86.0435 1.08984 86.7045 1.08984H90.2702C90.9312 1.08984 91.4654 1.86179 91.4654 2.80689V7.33036C91.4654 8.43417 92.2133 8.97526 93.0145 8.91033C94.37 8.88147 94.5436 7.90752 94.5436 7.10671V2.80689C94.5436 1.86179 95.0778 1.08984 95.7389 1.08984H99.3379C99.999 1.08984 100.533 1.86179 100.533 2.80689V21.009C100.533 21.9541 99.999 22.726 99.3379 22.726H95.7389C95.0778 22.726 94.5436 21.9541 94.5436 21.009H94.537Z" fill="#231815"/>
<path d="M70.4399 28.6059C70.0927 27.971 70.313 27.1702 70.9073 26.8094C71.5016 26.4487 72.0157 26.0736 72.4631 25.6623C73.3311 24.876 74.0323 23.9525 74.5531 22.9136C75.0672 21.882 75.4345 20.706 75.6348 19.4074C75.8351 18.1376 75.9353 16.6803 75.9353 15.0787V2.38123C75.9353 1.667 76.4695 1.08984 77.1305 1.08984H80.6962C81.3572 1.08984 81.8914 1.667 81.8914 2.38123V15.122C81.8914 16.0238 81.8647 18.2459 81.8046 19.1116C81.7779 19.4795 81.7378 19.8403 81.6978 20.1361C81.6444 20.5545 81.7779 20.9729 82.0584 21.2615L87.3468 26.6724C87.8008 27.1413 87.8476 27.906 87.4469 28.4327L85.4304 31.0948C84.983 31.6792 84.1684 31.7297 83.6676 31.2031L79.3808 26.6724L78.9935 27.2567C78.2523 28.3822 77.3041 29.4067 76.1757 30.294C75.3944 30.9145 74.4796 31.4628 73.458 31.9389C72.9038 32.1987 72.2561 31.9678 71.9489 31.4051L70.4265 28.6131L70.4399 28.6059Z" fill="#231815"/>
<path d="M112.934 30.742V24.0109C112.934 23.2966 112.399 22.7195 111.738 22.7195H103.999C103.338 22.7195 102.804 22.1423 102.804 21.4281V18.4485C102.804 17.7343 103.338 17.1571 103.999 17.1571H128.305C128.966 17.1571 129.5 17.7343 129.5 18.4485V21.4281C129.5 22.1423 128.966 22.7195 128.305 22.7195H120.566C119.905 22.7195 119.371 23.2966 119.371 24.0109V30.742C119.371 31.4562 118.836 32.0333 118.175 32.0333H114.136C113.474 32.0333 112.94 31.4562 112.94 30.742H112.934Z" fill="#231815"/>
<path d="M109.375 14.4727V8.16724C109.375 7.45301 108.841 6.87585 108.18 6.87585H104.32C103.659 6.87585 103.125 6.29869 103.125 5.58446V2.38123C103.125 1.667 103.659 1.08984 104.32 1.08984H114.25C114.911 1.08984 115.445 1.667 115.445 2.38123V14.4727C115.445 15.1869 114.911 15.7641 114.25 15.7641H110.577C109.916 15.7641 109.382 15.1869 109.382 14.4727H109.375Z" fill="#231815"/>
<path d="M122.695 14.4727V8.16724C122.695 7.45301 122.161 6.87585 121.5 6.87585H117.641C116.98 6.87585 116.445 6.29869 116.445 5.58446V2.38123C116.445 1.667 116.98 1.08984 117.641 1.08984H127.57C128.231 1.08984 128.765 1.667 128.765 2.38123V14.4727C128.765 15.1869 128.231 15.7641 127.57 15.7641H123.897C123.236 15.7641 122.702 15.1869 122.702 14.4727H122.695Z" fill="#231815"/>
<path d="M10.304 21.7169C9.99686 21.1613 10.1638 20.4399 10.6779 20.1008C10.9985 19.8916 11.2923 19.6679 11.5527 19.4299C12.1937 18.8527 12.7145 18.1673 13.0951 17.4026C13.4757 16.6451 13.7428 15.7793 13.8964 14.8198C14.0433 13.8964 14.1167 12.8358 14.1167 11.6671V10.5128C14.1167 9.85626 14.6109 9.32239 15.2185 9.32239H17.0481C17.6557 9.32239 18.1498 9.85626 18.1498 10.5128V11.6959C18.1498 11.898 18.1498 12.2659 18.1498 12.706C18.1498 13.3986 18.1498 14.5024 18.1498 15.1445C18.1498 15.4619 18.2633 15.7649 18.4703 15.9886L21.9959 19.7906C22.3966 20.2235 22.43 20.916 22.0694 21.385L20.9944 22.799C20.587 23.3401 19.8325 23.3834 19.3718 22.8928L16.4471 19.7978L16.0732 20.3605C15.5457 21.1613 14.8713 21.89 14.07 22.5249C13.5892 22.9 13.0417 23.2463 12.4407 23.5493C11.9333 23.8018 11.3323 23.5854 11.0452 23.066L10.304 21.7024V21.7169Z" fill="#231815"/>
<path d="M11.1436 32.033H1.68188C1.02751 32.033 0.5 31.4631 0.5 30.7561V19.3428C0.5 18.6357 1.02751 18.0658 1.68188 18.0658H3.645C4.29937 18.0658 4.82688 18.6357 4.82688 19.3428V26.4707C4.82688 27.1777 5.35439 27.7476 6.00876 27.7476H11.1503C11.8046 27.7476 12.3321 28.3176 12.3321 29.0246V30.7633C12.3321 31.4703 11.8046 32.0402 11.1503 32.0402L11.1436 32.033Z" fill="#231815"/>
<path d="M34.2944 17.3153H32.2512C31.5968 17.3153 31.0693 16.7454 31.0693 16.0384V13.2247C31.0693 12.5177 30.5418 11.9478 29.8874 11.9478H28.0779C27.4235 11.9478 26.896 11.3778 26.896 10.6708V8.78783C26.896 8.08081 27.4235 7.51086 28.0779 7.51086H34.2944C34.9488 7.51086 35.4763 8.08081 35.4763 8.78783V16.0312C35.4763 16.7382 34.9488 17.3081 34.2944 17.3081V17.3153Z" fill="#231815"/>
<path d="M30.1261 11.7891H28.0828C27.4285 11.7891 26.901 11.2191 26.901 10.5121V6.47923C26.901 5.77221 26.3735 5.20227 25.7191 5.20227H23.9095C23.2552 5.20227 22.7277 4.63233 22.7277 3.92531V2.04954C22.7277 1.34253 23.2552 0.772583 23.9095 0.772583H30.1261C30.7805 0.772583 31.308 1.34253 31.308 2.04954V10.5121C31.308 11.2191 30.7805 11.7891 30.1261 11.7891Z" fill="#231815"/>
<path d="M9.47339 14.8768C10.6055 14.8768 11.5233 13.8852 11.5233 12.662C11.5233 11.4388 10.6055 10.4471 9.47339 10.4471C8.34124 10.4471 7.42346 11.4388 7.42346 12.662C7.42346 13.8852 8.34124 14.8768 9.47339 14.8768Z" fill="#231815"/>
<path d="M22.5631 14.8768C23.6953 14.8768 24.613 13.8852 24.613 12.662C24.613 11.4388 23.6953 10.4471 22.5631 10.4471C21.431 10.4471 20.5132 11.4388 20.5132 12.662C20.5132 13.8852 21.431 14.8768 22.5631 14.8768Z" fill="#231815"/>
</svg>
