<svg width="36" height="36" viewBox="0 0 36 36" fill="none" xmlns="http://www.w3.org/2000/svg">
<path d="M20.7599 26.7432C22.4962 26.2771 24.1373 25.3628 25.4999 24.0002C29.642 19.8581 29.6423 13.1422 25.5002 9.00009C21.3581 4.858 14.6425 4.858 10.5004 9.00008C6.35831 13.1422 6.35831 19.8578 10.5004 23.9999C11.863 25.3625 13.5041 26.2768 15.2404 26.743L15.2471 26.7448C15.4142 26.7896 15.4984 26.8122 15.5629 26.8488C15.6237 26.8832 15.6702 26.9224 15.7161 26.975C15.7655 27.0316 15.8025 27.1044 15.8757 27.2508L17.1571 29.8135L17.1588 29.8168C17.4292 30.3575 17.5643 30.6279 17.7476 30.7148C17.9074 30.7906 18.0936 30.7904 18.2534 30.7146C18.4363 30.6278 18.5709 30.3587 18.8401 29.8204L18.8432 29.8135L20.1246 27.2508C20.1975 27.1048 20.2347 27.0307 20.2839 26.9742C20.3299 26.9215 20.3768 26.8835 20.4376 26.849C20.5022 26.8124 20.5865 26.7897 20.7545 26.7447L20.7599 26.7432Z" fill="#92A5E5" stroke="#92A5E5" stroke-width="2" stroke-linecap="round" stroke-linejoin="round"/>
</svg>
