<svg width="48" height="48" viewBox="0 0 48 48" fill="none" xmlns="http://www.w3.org/2000/svg">
<path d="M27.6792 35.6576C29.9943 35.0361 32.1824 33.817 33.9992 32.0002C39.522 26.4774 39.5224 17.5229 33.9997 12.0001C28.4769 6.47733 19.5227 6.47733 13.9999 12.0001C8.4771 17.5229 8.4771 26.4771 13.9999 31.9999C15.8167 33.8167 18.0048 35.0358 20.3199 35.6573L20.3289 35.6597C20.5516 35.7195 20.6639 35.7496 20.7499 35.7983C20.8309 35.8443 20.8929 35.8965 20.9542 35.9667C21.02 36.0422 21.0694 36.1392 21.167 36.3344L22.8755 39.7513L22.8778 39.7558C23.2382 40.4767 23.4185 40.8372 23.6628 40.9531C23.8759 41.0542 24.1242 41.0538 24.3373 40.9527C24.5811 40.8371 24.7605 40.4782 25.1194 39.7605L25.1236 39.7513L26.8321 36.3343C26.9294 36.1398 26.9789 36.0409 27.0446 35.9656C27.1058 35.8954 27.1685 35.8446 27.2495 35.7987C27.3357 35.7498 27.4481 35.7197 27.672 35.6596L27.6792 35.6576Z" fill="#0031A5" stroke="#0031A5" stroke-width="2" stroke-linecap="round" stroke-linejoin="round"/>
<circle cx="5" cy="5" r="5" transform="matrix(1 0 0 -1 19 27)" fill="white"/>
</svg>
