<svg width="16" height="19" viewBox="0 0 16 19" fill="none" xmlns="http://www.w3.org/2000/svg">
<path d="M9.8396 14.8288C10.9972 14.5181 12.0912 13.9085 12.9996 13.0001C15.761 10.2387 15.7612 5.76145 12.9998 3.00006C10.2384 0.238664 5.76134 0.238664 2.99994 3.00006C0.238551 5.76145 0.238551 10.2386 2.99994 12.9999C3.90833 13.9083 5.00238 14.5179 6.15995 14.8286L6.16443 14.8298C6.2758 14.8597 6.33197 14.8748 6.37494 14.8992C6.41547 14.9221 6.44647 14.9482 6.47708 14.9834C6.50998 15.0211 6.53469 15.0696 6.58349 15.1672L7.43773 16.8757L7.43888 16.8779C7.61911 17.2384 7.70923 17.4186 7.83142 17.4766C7.93796 17.5271 8.0621 17.5269 8.16864 17.4764C8.29056 17.4185 8.38027 17.2391 8.55971 16.8802L8.56182 16.8756L9.41606 15.1672C9.4647 15.0699 9.48946 15.0205 9.5223 14.9828C9.55292 14.9477 9.58423 14.9223 9.62476 14.8993C9.66784 14.8749 9.72403 14.8598 9.83598 14.8298L9.8396 14.8288Z" fill="#BCBCC4" stroke="#BCBCC4" stroke-linecap="round" stroke-linejoin="round"/>
<circle cx="2.5" cy="2.5" r="2.5" transform="matrix(1 0 0 -1 5.5 10.5)" fill="white"/>
</svg>
