<svg width="24" height="28" viewBox="0 0 24 28" fill="none" xmlns="http://www.w3.org/2000/svg">
<path d="M14.7594 22.7432C16.4957 22.2771 18.1368 21.3628 19.4994 20.0002C23.6415 15.8581 23.6418 9.14217 19.4997 5.00009C15.3577 0.857996 8.642 0.857996 4.49991 5.00008C0.357826 9.14217 0.357826 15.8578 4.49992 19.9999C5.8625 21.3625 7.50357 22.2768 9.23992 22.743L9.24664 22.7448C9.41371 22.7896 9.49796 22.8122 9.56241 22.8488C9.6232 22.8832 9.6697 22.9224 9.71563 22.975C9.76497 23.0316 9.80204 23.1044 9.87524 23.2508L11.1566 25.8135L11.1583 25.8168C11.4287 26.3575 11.5638 26.6279 11.7471 26.7148C11.9069 26.7906 12.0932 26.7904 12.253 26.7146C12.4358 26.6278 12.5704 26.3587 12.8396 25.8204L12.8427 25.8135L14.1241 23.2508C14.1971 23.1048 14.2342 23.0307 14.2835 22.9742C14.3294 22.9215 14.3763 22.8835 14.4371 22.849C14.5018 22.8124 14.5861 22.7897 14.754 22.7447L14.7594 22.7432Z" fill="#BFC8EF" stroke="#BFC8EF" stroke-width="2" stroke-linecap="round" stroke-linejoin="round"/>
</svg>
