<svg width="36" height="36" viewBox="0 0 36 36" fill="none" xmlns="http://www.w3.org/2000/svg">
<path d="M20.7594 26.7432C22.4957 26.2771 24.1368 25.3628 25.4994 24.0002C29.6415 19.8581 29.6418 13.1422 25.4997 9.00009C21.3577 4.858 14.642 4.858 10.4999 9.00008C6.35783 13.1422 6.35783 19.8578 10.4999 23.9999C11.8625 25.3625 13.5036 26.2768 15.2399 26.743L15.2466 26.7448C15.4137 26.7896 15.498 26.8122 15.5624 26.8488C15.6232 26.8832 15.6697 26.9224 15.7156 26.975C15.765 27.0316 15.802 27.1044 15.8752 27.2508L17.1566 29.8135L17.1583 29.8168C17.4287 30.3575 17.5638 30.6279 17.7471 30.7148C17.9069 30.7906 18.0932 30.7904 18.253 30.7146C18.4358 30.6278 18.5704 30.3587 18.8396 29.8204L18.8427 29.8135L20.1241 27.2508C20.1971 27.1048 20.2342 27.0307 20.2835 26.9742C20.3294 26.9215 20.3763 26.8835 20.4371 26.849C20.5018 26.8124 20.5861 26.7897 20.754 26.7447L20.7594 26.7432Z" fill="#3467D4" stroke="#3467D4" stroke-width="2" stroke-linecap="round" stroke-linejoin="round"/>
</svg>
