<svg width="43" height="15" viewBox="0 0 43 15" fill="none" xmlns="http://www.w3.org/2000/svg">
<path d="M11.5685 14.016C11.3445 14.016 11.2005 13.968 11.1205 13.872C11.0245 13.776 10.9925 13.632 10.9925 13.44V8.88H10.2725V13.44C10.2725 13.632 10.2245 13.776 10.1445 13.872C10.0485 13.968 9.90454 14.016 9.69654 14.016H8.49654C8.27254 14.016 8.12854 13.968 8.04854 13.872C7.95254 13.776 7.92054 13.632 7.92054 13.44V1.184C7.92054 0.992 7.95254 0.848 8.04854 0.752C8.12854 0.655999 8.27254 0.608 8.49654 0.608H9.69654C9.90454 0.608 10.0485 0.655999 10.1445 0.752C10.2245 0.848 10.2725 0.992 10.2725 1.184V6.24H10.9925V1.184C10.9925 0.992 11.0245 0.848 11.1205 0.752C11.2005 0.655999 11.3445 0.608 11.5685 0.608H12.7685C12.9765 0.608 13.1205 0.655999 13.2165 0.752C13.2965 0.848 13.3445 0.992 13.3445 1.184V13.44C13.3445 13.632 13.2965 13.776 13.2165 13.872C13.1205 13.968 12.9765 14.016 12.7685 14.016H11.5685ZM7.00854 13.12C7.00854 13.312 6.96054 13.456 6.88054 13.552C6.78454 13.648 6.64054 13.696 6.43254 13.696H1.53654C1.31254 13.696 1.16854 13.648 1.08854 13.552C0.992539 13.456 0.960539 13.312 0.960539 13.12V1.184C0.960539 0.992 0.992539 0.848 1.08854 0.752C1.16854 0.655999 1.31254 0.608 1.53654 0.608H3.10454C3.31254 0.608 3.45654 0.655999 3.55254 0.752C3.63254 0.848 3.68054 0.992 3.68054 1.184V11.856H6.43254C6.64054 11.856 6.78454 11.904 6.88054 12C6.96054 12.096 7.00854 12.24 7.00854 12.432V13.12ZM25.9704 14.016C25.7464 14.016 25.6024 13.968 25.5224 13.872C25.4264 13.776 25.3944 13.632 25.3944 13.44V8.88H24.6744V13.44C24.6744 13.632 24.6264 13.776 24.5464 13.872C24.4504 13.968 24.3064 14.016 24.0984 14.016H22.8984C22.6744 14.016 22.5304 13.968 22.4504 13.872C22.3544 13.776 22.3224 13.632 22.3224 13.44V1.184C22.3224 0.992 22.3544 0.848 22.4504 0.752C22.5304 0.655999 22.6744 0.608 22.8984 0.608H24.0984C24.3064 0.608 24.4504 0.655999 24.5464 0.752C24.6264 0.848 24.6744 0.992 24.6744 1.184V6.24H25.3944V1.184C25.3944 0.992 25.4264 0.848 25.5224 0.752C25.6024 0.655999 25.7464 0.608 25.9704 0.608H27.1704C27.3784 0.608 27.5224 0.655999 27.6184 0.752C27.6984 0.848 27.7464 0.992 27.7464 1.184V13.44C27.7464 13.632 27.6984 13.776 27.6184 13.872C27.5224 13.968 27.3784 14.016 27.1704 14.016H25.9704ZM21.4584 13.472C20.9304 13.168 20.4024 12.768 19.8904 12.272C19.3624 11.76 18.8984 11.232 18.4824 10.656C18.0504 11.232 17.5864 11.776 17.0744 12.272C16.5624 12.768 16.0344 13.168 15.5224 13.472C15.4104 13.52 15.3144 13.536 15.2504 13.52C15.1704 13.488 15.1384 13.392 15.1384 13.232V10.976C15.1384 10.848 15.1704 10.72 15.2344 10.608C15.2824 10.512 15.3464 10.432 15.4424 10.368C15.6664 10.208 15.8744 10.032 16.0824 9.808C16.2744 9.6 16.4664 9.376 16.6264 9.12C16.7864 8.88 16.9144 8.608 17.0104 8.32C17.1064 8.048 17.1544 7.76 17.1544 7.456V1.184C17.1544 0.992 17.1864 0.848 17.2824 0.752C17.3624 0.655999 17.5064 0.608 17.7304 0.608H19.2504C19.4584 0.608 19.6024 0.655999 19.6984 0.752C19.7784 0.848 19.8264 0.992 19.8264 1.184V7.456C19.8264 7.76 19.8744 8.048 19.9704 8.32C20.0664 8.608 20.1944 8.88 20.3544 9.12C20.5144 9.376 20.6904 9.6 20.8984 9.808C21.0904 10.032 21.3144 10.208 21.5384 10.368C21.6184 10.432 21.6984 10.512 21.7624 10.608C21.8104 10.72 21.8424 10.848 21.8424 10.976V13.232C21.8424 13.392 21.7944 13.488 21.7304 13.52C21.6504 13.536 21.5544 13.52 21.4584 13.472ZM37.4603 10.24V13.44C37.4603 13.632 37.4123 13.776 37.3323 13.872C37.2363 13.968 37.0923 14.016 36.8843 14.016H35.3323C35.1083 14.016 34.9643 13.968 34.8843 13.872C34.7883 13.776 34.7563 13.632 34.7563 13.44V10.24H30.6123C30.4203 10.24 30.2763 10.208 30.1803 10.112C30.0843 10.032 30.0363 9.888 30.0363 9.664V8.96C30.0363 8.752 30.0843 8.608 30.1803 8.512C30.2763 8.432 30.4203 8.384 30.6123 8.384H41.6043C41.7963 8.384 41.9403 8.432 42.0363 8.512C42.1323 8.608 42.1803 8.752 42.1803 8.96V9.664C42.1803 9.888 42.1323 10.032 42.0363 10.112C41.9403 10.208 41.7963 10.24 41.6043 10.24H37.4603ZM36.1163 1.184C36.1163 0.992 36.1483 0.848 36.2443 0.752C36.3243 0.655999 36.4683 0.608 36.6923 0.608H41.2843C41.4923 0.608 41.6363 0.655999 41.7323 0.752C41.8123 0.848 41.8603 0.992 41.8603 1.184V6.496C41.8603 6.688 41.8123 6.832 41.7323 6.928C41.6363 7.024 41.4923 7.072 41.2843 7.072H39.7163C39.4923 7.072 39.3483 7.024 39.2683 6.928C39.1723 6.832 39.1403 6.688 39.1403 6.496V2.464H36.6923C36.4683 2.464 36.3243 2.416 36.2443 2.32C36.1483 2.224 36.1163 2.08 36.1163 1.888V1.184ZM29.8763 1.184C29.8763 0.992 29.9083 0.848 30.0043 0.752C30.0843 0.655999 30.2283 0.608 30.4523 0.608H34.8843C35.0923 0.608 35.2363 0.655999 35.3323 0.752C35.4123 0.848 35.4603 0.992 35.4603 1.184V6.496C35.4603 6.688 35.4123 6.832 35.3323 6.928C35.2363 7.024 35.0923 7.072 34.8843 7.072H33.3163C33.0923 7.072 32.9483 7.024 32.8683 6.928C32.7723 6.832 32.7403 6.688 32.7403 6.496V2.464H30.4523C30.2283 2.464 30.0843 2.416 30.0043 2.32C29.9083 2.224 29.8763 2.08 29.8763 1.888V1.184Z" fill="#BCBCC4"/>
</svg>
