<svg width="32" height="33" viewBox="0 0 32 33" fill="none" xmlns="http://www.w3.org/2000/svg">
<path d="M12.2256 6.6216C11.8206 5.60918 10.8401 4.94531 9.74967 4.94531H6.08198C4.68673 4.94531 3.55566 6.07611 3.55566 7.47135C3.55566 19.3309 13.17 28.9453 25.0296 28.9453C26.4249 28.9453 27.5557 27.8141 27.5557 26.4189L27.5563 22.7506C27.5563 21.6602 26.8926 20.6798 25.8802 20.2748L22.3649 18.8692C21.4555 18.5055 20.42 18.6692 19.6676 19.2962L18.7604 20.0529C17.7008 20.9358 16.1418 20.8656 15.1666 19.8904L12.612 17.3334C11.6367 16.3581 11.5646 14.8004 12.4476 13.7409L13.2041 12.8337C13.8311 12.0813 13.9963 11.0455 13.6325 10.1361L12.2256 6.6216Z" fill="#E6E9F9" stroke="#BFC8EF" stroke-width="2" stroke-linecap="round" stroke-linejoin="round"/>
</svg>
