<svg width="64" height="64" viewBox="0 0 64 64" fill="none" xmlns="http://www.w3.org/2000/svg">
<g clip-path="url(#clip0_148_242)">
<rect width="64" height="64" rx="32" fill="#FFFDF9"/>
<path d="M32 0C14.336 0 0 14.336 0 32C0 49.664 14.336 64 32 64C49.664 64 64 49.664 64 32C64 14.336 49.664 0 32 0ZM32 12.8C38.176 12.8 43.2 17.824 43.2 24C43.2 30.176 38.176 35.2 32 35.2C25.824 35.2 20.8 30.176 20.8 24C20.8 17.824 25.824 12.8 32 12.8ZM32 57.6C25.504 57.6 17.824 54.976 12.352 48.384C17.76 44.16 24.576 41.6 32 41.6C39.424 41.6 46.24 44.16 51.648 48.384C46.176 54.976 38.496 57.6 32 57.6Z" fill="#D5D5D5"/>
</g>
<rect x="36" y="36" width="28" height="28" rx="14" fill="#FFFDF9"/>
<rect x="38" y="38" width="24" height="24" rx="12" fill="#D7D7D7"/>
<path d="M51.59 44.75L52.9625 46.25H56V55.25H44V46.25H47.0375L48.41 44.75H51.59ZM52.25 43.25H47.75L46.3775 44.75H44C43.175 44.75 42.5 45.425 42.5 46.25V55.25C42.5 56.075 43.175 56.75 44 56.75H56C56.825 56.75 57.5 56.075 57.5 55.25V46.25C57.5 45.425 56.825 44.75 56 44.75H53.6225L52.25 43.25ZM50 48.5C51.2375 48.5 52.25 49.5125 52.25 50.75C52.25 51.9875 51.2375 53 50 53C48.7625 53 47.75 51.9875 47.75 50.75C47.75 49.5125 48.7625 48.5 50 48.5ZM50 47C47.93 47 46.25 48.68 46.25 50.75C46.25 52.82 47.93 54.5 50 54.5C52.07 54.5 53.75 52.82 53.75 50.75C53.75 48.68 52.07 47 50 47Z" fill="white"/>
<defs>
<clipPath id="clip0_148_242">
<rect width="64" height="64" rx="32" fill="white"/>
</clipPath>
</defs>
</svg>
