<svg width="32" height="33" viewBox="0 0 32 33" fill="none" xmlns="http://www.w3.org/2000/svg">
<path d="M5.33301 27.1662V21.8328L15.9997 11.1662L19.8245 7.3413L19.8268 7.33903C20.3533 6.81252 20.617 6.5488 20.921 6.45002C21.1888 6.36301 21.4773 6.36301 21.7451 6.45002C22.0489 6.54873 22.3123 6.81215 22.8381 7.33792L25.1578 9.65765C25.6858 10.1857 25.95 10.4498 26.0489 10.7542C26.1359 11.022 26.1359 11.3105 26.0489 11.5783C25.95 11.8825 25.6863 12.1462 25.159 12.6735L25.1578 12.6746L21.333 16.4995L10.6663 27.1661L5.33301 27.1662Z" fill="#F5F5F7"/>
<path d="M5.33301 27.1662H26.6663M5.33301 27.1662V21.8328L15.9997 11.1662M5.33301 27.1662L10.6663 27.1661L21.333 16.4995M15.9997 11.1662L19.8245 7.3413L19.8268 7.33903C20.3533 6.81252 20.617 6.5488 20.921 6.45002C21.1888 6.36301 21.4773 6.36301 21.7451 6.45002C22.0489 6.54873 22.3123 6.81215 22.8381 7.33792L25.1578 9.65765C25.6858 10.1857 25.95 10.4498 26.0489 10.7542C26.1359 11.022 26.1359 11.3105 26.0489 11.5783C25.95 11.8825 25.6863 12.1462 25.159 12.6735L25.1578 12.6746L21.333 16.4995M15.9997 11.1662L21.333 16.4995" stroke="#BFC8EF" stroke-width="2" stroke-linecap="round" stroke-linejoin="round"/>
</svg>
