<svg width="112" height="19" viewBox="0 0 112 19" fill="none" xmlns="http://www.w3.org/2000/svg">
<path d="M22.8616 16.8329L22.8787 2.32307C22.8787 1.95764 23.152 1.66235 23.4902 1.66235H25.3145C25.6527 1.66235 25.926 1.95764 25.926 2.32307L25.9089 13.9871C25.9089 14.3525 26.1822 14.6478 26.5204 14.6478H30.251C30.5892 14.6478 30.8625 14.9431 30.8625 15.3085V16.8329C30.8625 17.1983 30.5892 17.4936 30.251 17.4936H23.4731C23.1349 17.4936 22.8616 17.1983 22.8616 16.8329Z" fill="#231815"/>
<path d="M33.8872 11.8536V9.35837C33.8872 8.79362 33.5353 8.61645 33.1356 8.62383C32.4455 8.6386 32.3157 9.05938 32.3157 9.4691V11.8499C32.3157 12.3334 32.0424 12.7284 31.7042 12.7284H29.8799C29.5417 12.7284 29.2684 12.3334 29.2684 11.8499V2.54084C29.2684 2.0573 29.5417 1.66235 29.8799 1.66235H31.7042C32.0424 1.66235 32.3157 2.0573 32.3157 2.54084V4.85518C32.3157 5.41993 32.6983 5.69676 33.1083 5.66354C33.8018 5.64878 33.8906 5.15047 33.8906 4.74076V2.54084C33.8906 2.0573 34.1639 1.66235 34.5021 1.66235H36.3435C36.6817 1.66235 36.955 2.0573 36.955 2.54084V11.8536C36.955 12.3371 36.6817 12.7321 36.3435 12.7321H34.5021C34.1639 12.7321 33.8906 12.3371 33.8906 11.8536H33.8872Z" fill="#231815"/>
<path d="M48.1121 11.8536V9.35837C48.1121 8.79362 47.7602 8.61645 47.3605 8.62383C46.6704 8.6386 46.5406 9.05938 46.5406 9.4691V11.8499C46.5406 12.3334 46.2673 12.7284 45.9291 12.7284H44.1048C43.7666 12.7284 43.4933 12.3334 43.4933 11.8499V2.54084C43.4933 2.0573 43.7666 1.66235 44.1048 1.66235H45.9291C46.2673 1.66235 46.5406 2.0573 46.5406 2.54084V4.85518C46.5406 5.41993 46.9232 5.69676 47.3332 5.66354C48.0267 5.64878 48.1155 5.15047 48.1155 4.74076V2.54084C48.1155 2.0573 48.3888 1.66235 48.7271 1.66235H50.5684C50.9066 1.66235 51.1799 2.0573 51.1799 2.54084V11.8536C51.1799 12.3371 50.9066 12.7321 50.5684 12.7321H48.7271C48.3888 12.7321 48.1155 12.3371 48.1155 11.8536H48.1121Z" fill="#231815"/>
<path d="M35.7832 15.7403C35.6056 15.4155 35.7183 15.0058 36.0223 14.8213C36.3264 14.6367 36.5894 14.4448 36.8183 14.2344C37.2625 13.832 37.6212 13.3596 37.8876 12.828C38.1507 12.3002 38.3386 11.6986 38.4411 11.0341C38.5436 10.3845 38.5948 9.6389 38.5948 8.81947V2.32307C38.5948 1.95764 38.8681 1.66235 39.2063 1.66235H41.0306C41.3688 1.66235 41.6421 1.95764 41.6421 2.32307V8.84161C41.6421 9.30301 41.6285 10.4399 41.5977 10.8828C41.5841 11.0711 41.5636 11.2556 41.5431 11.407C41.5157 11.621 41.5841 11.8351 41.7276 11.9828L44.4333 14.7511C44.6656 14.991 44.6895 15.3823 44.4845 15.6518L43.4528 17.0138C43.2239 17.3128 42.8071 17.3386 42.5509 17.0692L40.3576 14.7511L40.1595 15.0501C39.7803 15.6259 39.2952 16.1501 38.7178 16.6041C38.3181 16.9215 37.8501 17.202 37.3274 17.4457C37.0438 17.5785 36.7124 17.4604 36.5553 17.1725L35.7764 15.744L35.7832 15.7403Z" fill="#231815"/>
<path d="M57.5243 16.8333V13.3895C57.5243 13.0241 57.251 12.7288 56.9128 12.7288H52.9533C52.6151 12.7288 52.3418 12.4335 52.3418 12.0681V10.5436C52.3418 10.1782 52.6151 9.88293 52.9533 9.88293H65.3886C65.7268 9.88293 66.0001 10.1782 66.0001 10.5436V12.0681C66.0001 12.4335 65.7268 12.7288 65.3886 12.7288H61.4291C61.0909 12.7288 60.8176 13.0241 60.8176 13.3895V16.8333C60.8176 17.1988 60.5443 17.4941 60.2061 17.4941H58.1392C57.801 17.4941 57.5277 17.1988 57.5277 16.8333H57.5243Z" fill="#231815"/>
<path d="M55.7038 8.50941V5.28336C55.7038 4.91793 55.4305 4.62264 55.0923 4.62264H53.1177C52.7795 4.62264 52.5062 4.32735 52.5062 3.96193V2.32307C52.5062 1.95764 52.7795 1.66235 53.1177 1.66235H58.1977C58.5359 1.66235 58.8092 1.95764 58.8092 2.32307V8.50941C58.8092 8.87483 58.5359 9.17012 58.1977 9.17012H56.3188C55.9805 9.17012 55.7072 8.87483 55.7072 8.50941H55.7038Z" fill="#231815"/>
<path d="M62.5186 8.50941V5.28336C62.5186 4.91793 62.2453 4.62264 61.9071 4.62264H59.9325C59.5943 4.62264 59.321 4.32735 59.321 3.96193V2.32307C59.321 1.95764 59.5943 1.66235 59.9325 1.66235H65.0125C65.3507 1.66235 65.6241 1.95764 65.6241 2.32307V8.50941C65.6241 8.87483 65.3507 9.17012 65.0125 9.17012H63.1336C62.7954 9.17012 62.5221 8.87483 62.5221 8.50941H62.5186Z" fill="#231815"/>
<path d="M5.01598 12.2155C4.85883 11.9313 4.94424 11.5622 5.20729 11.3887C5.37128 11.2817 5.52159 11.1672 5.65483 11.0454C5.98279 10.7501 6.24926 10.3995 6.44399 10.0082C6.63872 9.62065 6.77537 9.17771 6.85395 8.68679C6.92911 8.21432 6.96669 7.67173 6.96669 7.07376V6.48318C6.96669 6.14729 7.21949 5.87415 7.53037 5.87415H8.46644C8.77732 5.87415 9.03013 6.14729 9.03013 6.48318V7.08853C9.03013 7.19188 9.03013 7.38013 9.03013 7.60529C9.03013 7.95964 9.03013 8.52438 9.03013 8.85289C9.03013 9.0153 9.08821 9.17033 9.19411 9.28475L10.9979 11.23C11.2029 11.4515 11.22 11.8058 11.0355 12.0457L10.4855 12.7692C10.2771 13.046 9.89103 13.0682 9.65531 12.8172L8.15897 11.2337L7.96766 11.5216C7.69777 11.9313 7.35273 12.3041 6.94277 12.6289C6.6968 12.8209 6.41666 12.998 6.1092 13.1531C5.84956 13.2823 5.54209 13.1715 5.39519 12.9058L5.01598 12.2081V12.2155Z" fill="#231815"/>
<path d="M5.44557 17.4938H0.604684C0.269887 17.4938 0 17.2022 0 16.8405V11.0011C0 10.6394 0.269887 10.3478 0.604684 10.3478H1.60907C1.94387 10.3478 2.21376 10.6394 2.21376 11.0011V14.648C2.21376 15.0097 2.48365 15.3013 2.81844 15.3013H5.44899C5.78379 15.3013 6.05367 15.5929 6.05367 15.9546V16.8442C6.05367 17.2059 5.78379 17.4975 5.44899 17.4975L5.44557 17.4938Z" fill="#231815"/>
<path d="M17.2901 9.96376H16.2448C15.91 9.96376 15.6401 9.67216 15.6401 9.31043V7.87089C15.6401 7.50916 15.3702 7.21756 15.0354 7.21756H14.1096C13.7748 7.21756 13.5049 6.92596 13.5049 6.56423V5.60084C13.5049 5.23911 13.7748 4.94751 14.1096 4.94751H17.2901C17.6249 4.94751 17.8948 5.23911 17.8948 5.60084V9.30674C17.8948 9.66847 17.6249 9.96007 17.2901 9.96007V9.96376Z" fill="#231815"/>
<path d="M15.1576 7.13636H14.1122C13.7774 7.13636 13.5075 6.84476 13.5075 6.48303V4.41969C13.5075 4.05796 13.2376 3.76636 12.9028 3.76636H11.977C11.6422 3.76636 11.3723 3.47476 11.3723 3.11303V2.15333C11.3723 1.7916 11.6422 1.5 11.977 1.5H15.1576C15.4924 1.5 15.7623 1.7916 15.7623 2.15333V6.48303C15.7623 6.84476 15.4924 7.13636 15.1576 7.13636Z" fill="#231815"/>
<path d="M4.59104 8.71619C5.17028 8.71619 5.63984 8.20885 5.63984 7.58301C5.63984 6.95717 5.17028 6.44983 4.59104 6.44983C4.0118 6.44983 3.54224 6.95717 3.54224 7.58301C3.54224 8.20885 4.0118 8.71619 4.59104 8.71619Z" fill="#231815"/>
<path d="M11.2881 8.71619C11.8673 8.71619 12.3369 8.20885 12.3369 7.58301C12.3369 6.95717 11.8673 6.44983 11.2881 6.44983C10.7088 6.44983 10.2393 6.95717 10.2393 7.58301C10.2393 8.20885 10.7088 8.71619 11.2881 8.71619Z" fill="#231815"/>
<path d="M77.9062 4.09375C77.8984 6.17969 79.75 8.40625 82.9688 8.95312L82.0938 10.6094C79.6094 10.1172 77.7734 8.71875 76.8516 6.89844C75.9141 8.70312 74.0703 10.1094 71.6094 10.6094L70.75 8.95312C73.9141 8.39062 75.7656 6.15625 75.7812 4.09375V3.0625H77.9062V4.09375ZM70.4219 14.6875V13.0469H83.4375V14.6875H70.4219ZM95.8438 9.26562V10.8438H91.75V13.25H97.2656V14.8438H84.25V13.25H89.7344V10.8438H85.7812V3.20312H95.7344V4.79688H87.8125V6.21875H95.4062V7.78125H87.8125V9.26562H95.8438ZM102 3.21875C103.922 3.21875 105.359 4.79688 105.641 7.35938H108.109V2.21875H110.078V16.4688H108.109V8.95312H105.664C105.453 11.6875 103.984 13.3594 102 13.3594C99.8438 13.3594 98.2969 11.4062 98.3125 8.28125C98.2969 5.17969 99.8438 3.21875 102 3.21875ZM100.219 8.28125C100.211 10.3984 100.938 11.5547 102 11.5469C103.07 11.5547 103.781 10.3984 103.781 8.28125C103.781 6.17188 103.07 5.01562 102 5.01562C100.938 5.01562 100.211 6.17188 100.219 8.28125Z" fill="black"/>
</svg>
