<svg width="36" height="36" viewBox="0 0 36 36" fill="none" xmlns="http://www.w3.org/2000/svg">
<g id="ic/bone">
<path id="Vector" d="M28.6609 16.8848C29.7944 16.9803 30.9608 16.5944 31.8281 15.7271C33.3906 14.1645 33.3906 11.6311 31.8281 10.0685C30.8914 9.13179 29.4961 8.86626 28.5287 8.80382C27.6711 8.80382 27.1962 8.29324 27.1962 7.47131C27.1337 6.5039 26.8682 5.10864 25.9315 4.17193C24.3689 2.60936 21.8355 2.60936 20.2729 4.17193C19.4056 5.03923 19.0197 6.20565 19.1152 7.33913C19.2452 8.88247 19.3851 10.7183 18.2899 11.8135L11.8135 18.2899C10.7183 19.3851 8.88247 19.2452 7.33913 19.1152C6.20565 19.0197 5.03924 19.4056 4.17193 20.2729C2.60936 21.8355 2.60936 24.3689 4.17193 25.9315C5.10864 26.8682 6.5039 27.1337 7.4713 27.1962C8.38737 27.1962 8.80383 27.75 8.80383 28.5287C8.86626 29.4961 9.1318 30.8914 10.0685 31.8281C11.6311 33.3906 14.1645 33.3906 15.7271 31.8281C16.5944 30.9608 16.9803 29.7943 16.8848 28.6609C16.7548 27.1175 16.6149 25.2817 17.7101 24.1865L24.1865 17.7101C25.2817 16.6149 27.1175 16.7548 28.6609 16.8848Z" fill="#E6E9F9"/>
</g>
</svg>
