<svg width="36" height="36" viewBox="0 0 36 36" fill="none" xmlns="http://www.w3.org/2000/svg">
<g id="ic/eye">
<g id="Vector">
<path d="M14.1946 18C14.1946 15.8981 15.8985 14.1942 18.0004 14.1942C20.1024 14.1942 21.8063 15.8981 21.8063 18C21.8063 20.1019 20.1024 21.8058 18.0004 21.8058C15.8985 21.8058 14.1946 20.1019 14.1946 18Z" fill="#E6E9F9"/>
<path fill-rule="evenodd" clip-rule="evenodd" d="M17.453 6C10.7222 6 4.85522 10.5808 3.22277 17.1106C3.07679 17.6946 3.07678 18.3054 3.22277 18.8894C4.85522 25.4192 10.7222 30 17.453 30H18.5479C25.2786 30 31.1456 25.4192 32.7781 18.8894C32.9241 18.3054 32.9241 17.6946 32.7781 17.1106C31.1456 10.5808 25.2786 6 18.5479 6H17.453ZM18.0004 11.1942C14.2417 11.1942 11.1946 14.2412 11.1946 18C11.1946 21.7588 14.2417 24.8058 18.0004 24.8058C21.7592 24.8058 24.8063 21.7588 24.8063 18C24.8063 14.2412 21.7592 11.1942 18.0004 11.1942Z" fill="#E6E9F9"/>
</g>
</g>
</svg>
