<svg width="36" height="36" viewBox="0 0 36 36" fill="none" xmlns="http://www.w3.org/2000/svg">
<g id="ic/hospital">
<path id="Vector" d="M16.3333 3C14.4924 3 13 4.49238 13 6.33333V13H6.33333C4.49238 13 3 14.4924 3 16.3333V19.6667C3 21.5076 4.49238 23 6.33333 23H13V29.6667C13 31.5076 14.4924 33 16.3333 33H19.6667C21.5076 33 23 31.5076 23 29.6667V23H29.6667C31.5076 23 33 21.5076 33 19.6667V16.3333C33 14.4924 31.5076 13 29.6667 13H23V6.33333C23 4.49238 21.5076 3 19.6667 3H16.3333Z" fill="#E6E9F9"/>
</g>
</svg>
