<svg width="36" height="36" viewBox="0 0 36 36" fill="none" xmlns="http://www.w3.org/2000/svg">
<g id="ic/medical_documentation">
<path id="Subtract" fill-rule="evenodd" clip-rule="evenodd" d="M10.5 6.00001C8.01472 6.00001 6 8.01473 6 10.5V28.5C6 30.9853 8.01472 33 10.5 33H25.5C27.9853 33 30 30.9853 30 28.5V10.5C30 8.01473 27.9853 6.00001 25.5 6C25.5 8.48527 23.4853 10.5 21 10.5H15C12.5147 10.5 10.5 8.48528 10.5 6.00001ZM16.4044 15.7517C16.9042 15.7754 17.3593 16.0468 17.6178 16.4753L19.5634 19.7008L20.2519 18.668C20.5301 18.2507 20.9985 18.0001 21.5 18.0001H22.5C23.3284 18.0001 24 18.6716 24 19.5001C24 20.3285 23.3284 21.0001 22.5 21.0001H22.3028L20.7481 23.3321C20.4632 23.7594 19.9795 24.0112 19.4661 23.9996C18.9526 23.988 18.4808 23.7145 18.2156 23.2748L16.2056 19.9425L15.872 20.3929C15.5891 20.7748 15.142 21 14.6667 21H13.5C12.6716 21 12 20.3285 12 19.5C12 18.6716 12.6716 18 13.5 18H13.9111L15.128 16.3572C15.4258 15.9551 15.9046 15.728 16.4044 15.7517Z" fill="#E6E9F9"/>
<rect id="Rectangle 12" x="13.5" y="3" width="9" height="4.5" rx="2.25" fill="#E6E9F9"/>
</g>
</svg>
