<svg width="36" height="36" viewBox="0 0 36 36" fill="none" xmlns="http://www.w3.org/2000/svg">
<g id="ic/tooth">
<rect width="36" height="36" fill="white"/>
<path id="Vector" d="M12.0001 3C7.84043 3 4.50008 6.40906 4.50008 10.575L4.50004 10.8199C4.49912 14.6736 4.49827 18.2389 6.56381 21.385C7.13718 25.476 7.17774 27.3309 7.17344 27.8668C7.16899 27.9525 7.16674 28.0385 7.16674 28.125C7.16674 30.7998 9.31319 33 12.0001 33C13.2822 33 14.5541 32.5201 15.5194 31.7245C16.4919 30.9231 17.2501 29.711 17.2501 28.236C17.2501 27.7526 17.2999 27.2914 17.4069 26.8578C17.5041 26.4635 17.6384 25.9439 17.8091 25.3392C17.8183 25.3065 17.8304 25.275 17.8452 25.2451L17.9584 25.0158L18.0936 25.2895C18.2858 25.9767 18.4329 26.5512 18.5342 26.9643C18.6239 27.3298 18.6667 27.7181 18.6667 28.125C18.6667 29.6125 19.4575 30.8458 20.4291 31.6608C21.3991 32.4743 22.6917 33 24.0001 33C26.687 33 28.8334 30.7998 28.8334 28.125C28.8334 28.0385 28.8312 27.9524 28.8267 27.8668C28.8224 27.3309 28.863 25.4759 29.4364 21.385C31.5019 18.2389 31.501 14.6736 31.5001 10.8199L31.5001 10.575C31.5001 6.40906 28.1597 3 24.0001 3C23.2068 3 22.4397 3.12491 21.7185 3.3573C21.3958 3.46128 21.074 3.57446 20.7736 3.6801L20.6519 3.72288C20.3088 3.84332 19.991 3.95321 19.6778 4.04857C19.0499 4.23977 18.5097 4.35 18.0001 4.35C17.4905 4.35 16.9502 4.23977 16.3223 4.04857C16.0091 3.95321 15.6913 3.84332 15.3483 3.72288L15.2266 3.68011C14.9262 3.57447 14.6044 3.46128 14.2817 3.3573C13.5605 3.12491 12.7933 3 12.0001 3Z" fill="#E6E9F9"/>
</g>
</svg>
