<svg width="24" height="24" viewBox="0 0 24 24" fill="none" xmlns="http://www.w3.org/2000/svg">
<path d="M15.6262 10.5V6C15.6262 5.00544 15.2311 4.05161 14.5279 3.34835C13.8246 2.64509 12.8708 2.25 11.8762 2.25C10.8816 2.25 9.92782 2.64509 9.22456 3.34835C8.52129 4.05161 8.12621 5.00544 8.12621 6V10.5M19.4822 8.507L20.7452 20.507C20.8152 21.172 20.2952 21.75 19.6262 21.75H4.12621C3.96841 21.7502 3.81235 21.7171 3.66815 21.6531C3.52396 21.589 3.39485 21.4953 3.28923 21.3781C3.1836 21.2608 3.10382 21.1227 3.05506 20.9726C3.0063 20.8226 2.98966 20.6639 3.00621 20.507L4.27021 8.507C4.29936 8.23056 4.42983 7.9747 4.63646 7.78876C4.84308 7.60281 5.11123 7.49995 5.38921 7.5H18.3632C18.9392 7.5 19.4222 7.935 19.4822 8.507ZM8.50121 10.5C8.50121 10.5995 8.4617 10.6948 8.39137 10.7652C8.32104 10.8355 8.22566 10.875 8.12621 10.875C8.02675 10.875 7.93137 10.8355 7.86104 10.7652C7.79071 10.6948 7.75121 10.5995 7.75121 10.5C7.75121 10.4005 7.79071 10.3052 7.86104 10.2348C7.93137 10.1645 8.02675 10.125 8.12621 10.125C8.22566 10.125 8.32104 10.1645 8.39137 10.2348C8.4617 10.3052 8.50121 10.4005 8.50121 10.5ZM16.0012 10.5C16.0012 10.5995 15.9617 10.6948 15.8914 10.7652C15.821 10.8355 15.7257 10.875 15.6262 10.875C15.5267 10.875 15.4314 10.8355 15.361 10.7652C15.2907 10.6948 15.2512 10.5995 15.2512 10.5C15.2512 10.4005 15.2907 10.3052 15.361 10.2348C15.4314 10.1645 15.5267 10.125 15.6262 10.125C15.7257 10.125 15.821 10.1645 15.8914 10.2348C15.9617 10.3052 16.0012 10.4005 16.0012 10.5Z" stroke="black" stroke-width="1.5" stroke-linecap="round" stroke-linejoin="round"/>
</svg>
